{"title":"Gwen Stefani - Luxurious @ Gwen Stefani Harajuku Lovers Live 108","uid":6980318,"size":820830560,"categoryP":"video","categoryS":"other","magnet":"?xt=urn:btih:284db72b763f205404909aceb2acc48f4a2889e1&amp;dn=Gwen+Stefani+-+Luxurious+%40+Gwen+Stefani+Harajuku+Lovers+Live+108&amp;tr=udp%3A%2F%2Ftracker.openbittorrent.com%3A80&amp;tr=udp%3A%2F%2Fopen.demonii.com%3A1337&amp;tr=udp%3A%2F%2Ftracker.coppersurfer.tk%3A6969&amp;tr=udp%3A%2F%2Fexodus.desync.com%3A6969","seeders":0,"leechers":0,"uploader":"HDfan2","files":1,"time":1327381593,"description":"Format                           : MPEG-TS\nFile size                        : 783 MiB\nDuration                         : 5mn 59s\nOverall bit rate mode            : Variable\nOverall bit rate                 : 18.3 Mbps\n\nVideo\nID                               : 537 (0x219)\nMenu ID                          : 1 (0x1)\nFormat                           : MPEG Video\nFormat version                   : Version 2\nFormat profile                   : Main@High\nFormat settings, BVOP            : Yes\nFormat settings, Matrix          : Custom\nCodec ID                         : 2\nDuration                         : 5mn 59s\nBit rate mode                    : Variable\nBit rate                         : 17.0 Mbps\nMaximum bit rate                 : 80.0 Mbps\nWidth                            : 1 920 pixels\nHeight                           : 1 080 pixels\nDisplay aspect ratio             : 16:9\nFrame rate                       : 29.970 fps\nColor space                      : YUV\nChroma subsampling               : 4:2:0\nBit depth                        : 8 bits\nScan type                        : Interlaced\nScan order                       : Top Field First\nCompression mode                 : Lossy\nBits/(Pixel*Frame)               : 0.273\nStream size                      : 727 MiB (93%)\n\nAudio\nID                               : 536 (0x218)\nMenu ID                          : 1 (0x1)\nFormat                           : AC-3\nFormat/Info                      : Audio Coding 3\nMode extension                   : CM (complete main)\nCodec ID                         : 129\nDuration                         : 5mn 59s\nBit rate mode                    : Constant\nBit rate                         : 384 Kbps\nChannel(s)                       : 6 channels\nChannel positions                : Front: L C R, Side: L R, LFE\nSampling rate                    : 48.0 KHz\nBit depth                        : 16 bits\nCompression mode                 : Lossy\nStream size                      : 16.4 MiB (2%)\nLanguage                         : English\n\nText #1\nID                               : 537 (0x219)-608-1\nMenu ID                          : 1 (0x1)\nFormat                           : EIA-608\nMuxing mode                      : A/53 / DTVCC Transport\nMuxing mode, more info           : Muxed in Video #1\nDuration                         : 5mn 59s\nBit rate mode                    : Constant\nStream size                      : 0.00 Byte (0%)\n\nText #2\nID                               : 537 (0x219)-1\nMenu ID                          : 1 (0x1)\nFormat                           : EIA-708\nMuxing mode                      : A/53 / DTVCC Transport\nMuxing mode, more info           : Muxed in Video #1\nDuration                         : 5mn 59s\nBit rate mode                    : Constant\nStream size                      : 0.00 Byte (0%)\n","torrent":{"xt":"urn:btih:284db72b763f205404909aceb2acc48f4a2889e1","amp;dn":"Gwen+Stefani+-+Luxurious+%40+Gwen+Stefani+Harajuku+Lovers+Live+108","amp;tr":["udp%3A%2F%2Ftracker.openbittorrent.com%3A80","udp%3A%2F%2Fopen.demonii.com%3A1337","udp%3A%2F%2Ftracker.coppersurfer.tk%3A6969","udp%3A%2F%2Fexodus.desync.com%3A6969"],"infoHash":"284db72b763f205404909aceb2acc48f4a2889e1","infoHashBuffer":{"type":"Buffer","data":[40,77,183,43,118,63,32,84,4,144,154,206,178,172,196,143,74,40,137,225]},"announce":[],"urlList":[]}}